<svg width="1920" height="2731" viewBox="0 0 1920 2731" fill="none" xmlns="http://www.w3.org/2000/svg">
<path d="M-206.99 1120.92C-181.229 1095.28 -148.625 1127.72 -122.863 1102.09C-97.0963 1076.45 -129.698 1044.02 -103.936 1018.38C-78.1718 992.75 -45.5699 1025.19 -19.8056 999.555C5.96333 973.917 -26.6409 941.48 -0.871956 915.844C24.8947 890.206 57.4966 922.642 83.2632 897.006" stroke="#5E4870" stroke-opacity="0.3" stroke-width="2.66667" stroke-miterlimit="10" stroke-linecap="round" stroke-linejoin="round"/>
<path d="M1566.2 2299.25C1602.63 2299.25 1602.63 2345.12 1639.07 2345.12C1675.51 2345.12 1675.51 2299.25 1711.94 2299.25C1748.38 2299.25 1748.38 2345.12 1784.81 2345.12C1821.26 2345.12 1821.26 2299.25 1857.69 2299.25C1894.13 2299.25 1894.13 2345.12 1930.58 2345.12" stroke="#5E4870" stroke-opacity="0.3" stroke-width="2.66667" stroke-miterlimit="10" stroke-linecap="round" stroke-linejoin="round"/>
<path d="M482.103 2576.04C518.539 2576.04 518.539 2621.91 554.975 2621.91C591.41 2621.91 591.41 2576.04 627.846 2576.04C664.282 2576.04 664.282 2621.91 700.717 2621.91C737.158 2621.91 737.158 2576.04 773.6 2576.04C810.041 2576.04 810.041 2621.91 846.481 2621.91" stroke="#5E4870" stroke-opacity="0.3" stroke-width="2.66667" stroke-miterlimit="10" stroke-linecap="round" stroke-linejoin="round"/>
<path d="M1887.42 118.293C1923.85 118.293 1923.85 164.166 1960.29 164.166C1996.72 164.166 1996.72 118.293 2033.16 118.293C2069.59 118.293 2069.59 164.166 2106.04 164.166C2142.46 164.166 2142.46 118.293 2178.91 118.293C2215.35 118.293 2215.35 164.166 2251.8 164.166" stroke="#5E4870" stroke-opacity="0.3" stroke-width="2.66667" stroke-miterlimit="10" stroke-linecap="round" stroke-linejoin="round"/>
<path d="M299.916 808.24C336.352 808.24 336.352 854.113 372.785 854.113C409.223 854.113 409.223 808.24 445.659 808.24C482.094 808.24 482.094 854.113 518.53 854.113C554.97 854.113 554.97 808.24 591.411 808.24C627.851 808.24 627.851 854.113 664.293 854.113" stroke="#F28195" stroke-opacity="0.3" stroke-width="2.66667" stroke-miterlimit="10" stroke-linecap="round" stroke-linejoin="round"/>
<path d="M12.7664 1487.98L96.8969 1469.15L115.821 1385.45L199.952 1366.62L218.886 1282.91L303.023 1264.07" stroke="#5E4870" stroke-opacity="0.3" stroke-width="2.66667" stroke-miterlimit="10" stroke-linecap="round" stroke-linejoin="round"/>
<path d="M1200.61 631.903L1273.48 677.776L1346.35 631.903L1419.22 677.776L1492.1 631.903L1564.99 677.776" stroke="#5E4870" stroke-opacity="0.3" stroke-width="2.66667" stroke-miterlimit="10" stroke-linecap="round" stroke-linejoin="round"/>
<path d="M1350.03 692.249L1422.9 738.121L1495.77 692.249L1568.64 738.121L1641.53 692.249L1714.41 738.121" stroke="#5E4870" stroke-opacity="0.3" stroke-width="2.66667" stroke-miterlimit="10" stroke-linecap="round" stroke-linejoin="round" stroke-dasharray="16 16"/>
<path d="M-282.748 2552.17L-198.618 2533.33L-179.692 2449.64L-95.561 2430.81L-76.6297 2347.09L7.50781 2328.26" stroke="#F28195" stroke-opacity="0.3" stroke-width="2.66667" stroke-miterlimit="10" stroke-linecap="round" stroke-linejoin="round"/>
<path d="M-134.203 2489.71L-50.0746 2470.88L-31.1456 2387.18L52.9827 2368.35L71.9164 2284.63L156.052 2265.8" stroke="#5E4870" stroke-opacity="0.3" stroke-width="2.66667" stroke-miterlimit="10" stroke-linecap="round" stroke-linejoin="round" stroke-dasharray="16 16"/>
<path d="M1457.51 1632.05L1530.38 1677.93L1603.26 1632.05L1676.14 1677.93" stroke="#5E4870" stroke-opacity="0.3" stroke-width="2.66667" stroke-miterlimit="10" stroke-linecap="round" stroke-linejoin="round"/>
<path d="M1530.38 1740.46L1603.26 1694.59L1676.14 1740.46" stroke="#5E4870" stroke-opacity="0.3" stroke-width="2.66667" stroke-miterlimit="10" stroke-linecap="round" stroke-linejoin="round"/>
<path d="M887.119 562.066L960.002 516.193L1032.88 562.066" stroke="#5E4870" stroke-opacity="0.3" stroke-width="2.66667" stroke-miterlimit="10" stroke-linecap="round" stroke-linejoin="round"/>
<path d="M893.06 2265.59L977.188 2246.76L996.122 2163.05L1080.26 2144.21" stroke="#5E4870" stroke-opacity="0.3" stroke-width="2.66667" stroke-miterlimit="10" stroke-linecap="round" stroke-linejoin="round"/>
<path d="M1021.63 2290.99L1040.57 2207.27L1124.7 2188.43" stroke="#F28195" stroke-opacity="0.3" stroke-width="2.66667" stroke-miterlimit="10" stroke-linecap="round" stroke-linejoin="round"/>
<path d="M111.229 1743.15L184.1 1789.03L256.981 1743.15L329.861 1789.03" stroke="#F28195" stroke-opacity="0.3" stroke-width="2.66667" stroke-miterlimit="10" stroke-linecap="round" stroke-linejoin="round"/>
<path d="M183.485 2144.92L256.366 2099.05L329.246 2144.92" stroke="#5E4870" stroke-opacity="0.3" stroke-width="2.66667" stroke-miterlimit="10" stroke-linecap="round" stroke-linejoin="round"/>
<path d="M1603.26 245.842L1676.14 199.97L1749.02 245.842" stroke="#5E4870" stroke-opacity="0.3" stroke-width="2.66667" stroke-miterlimit="10" stroke-linecap="round" stroke-linejoin="round"/>
<path d="M460.026 1897.15V1987.71" stroke="#5E4870" stroke-opacity="0.3" stroke-width="2.66667" stroke-miterlimit="10" stroke-linecap="round" stroke-linejoin="round"/>
<path d="M505.537 1942.43H414.511" stroke="#5E4870" stroke-opacity="0.3" stroke-width="2.66667" stroke-miterlimit="10" stroke-linecap="round" stroke-linejoin="round"/>
<path d="M633.227 589.734V680.299" stroke="#5E4870" stroke-opacity="0.3" stroke-width="2.66667" stroke-miterlimit="10" stroke-linecap="round" stroke-linejoin="round"/>
<path d="M678.741 635.015H587.715" stroke="#5E4870" stroke-opacity="0.3" stroke-width="2.66667" stroke-miterlimit="10" stroke-linecap="round" stroke-linejoin="round"/>
<path d="M1350.03 900.997V991.561" stroke="#F28195" stroke-opacity="0.3" stroke-width="2.66667" stroke-miterlimit="10" stroke-linecap="round" stroke-linejoin="round"/>
<path d="M1395.55 946.28H1304.52" stroke="#F28195" stroke-opacity="0.3" stroke-width="2.66667" stroke-miterlimit="10" stroke-linecap="round" stroke-linejoin="round"/>
<path d="M47.8884 1218.79V1309.35" stroke="#F28195" stroke-opacity="0.3" stroke-width="2.66667" stroke-miterlimit="10" stroke-linecap="round" stroke-linejoin="round"/>
<path d="M93.4001 1264.07H2.37653" stroke="#F28195" stroke-opacity="0.3" stroke-width="2.66667" stroke-miterlimit="10" stroke-linecap="round" stroke-linejoin="round"/>
<path d="M496.993 2195.01C496.993 2215.32 480.444 2231.79 460.025 2231.79C439.609 2231.79 423.057 2215.32 423.057 2195.01C423.057 2174.7 439.609 2158.23 460.025 2158.23C480.444 2158.23 496.993 2174.7 496.993 2195.01Z" stroke="#5E4870" stroke-opacity="0.3" stroke-width="2.66667" stroke-miterlimit="10" stroke-linecap="round" stroke-linejoin="round"/>
<path d="M220.546 995.538C220.546 1015.85 203.996 1032.32 183.578 1032.32C163.162 1032.32 146.609 1015.85 146.609 995.538C146.609 975.223 163.162 958.757 183.578 958.757C203.996 958.757 220.546 975.223 220.546 995.538Z" stroke="#5E4870" stroke-opacity="0.3" stroke-width="2.66667" stroke-miterlimit="10" stroke-linecap="round" stroke-linejoin="round"/>
<path d="M250.194 593.975L243.278 582.057L236.362 593.975" stroke="#5E4870" stroke-opacity="0.3" stroke-width="2.66667" stroke-linecap="round" stroke-linejoin="round"/>
<path d="M221.057 620.347L198.101 659.908" stroke="#5E4870" stroke-opacity="0.3" stroke-width="2.66667" stroke-linecap="round" stroke-linejoin="round" stroke-dasharray="17.7 17.7"/>
<path d="M190.45 673.094L183.534 685.012H197.366" stroke="#5E4870" stroke-opacity="0.3" stroke-width="2.66667" stroke-linecap="round" stroke-linejoin="round"/>
<path d="M227.974 685.012H273.886" stroke="#5E4870" stroke-opacity="0.3" stroke-width="2.66667" stroke-linecap="round" stroke-linejoin="round" stroke-dasharray="17.7 17.7"/>
<path d="M289.191 685.012H303.023L296.107 673.094" stroke="#5E4870" stroke-opacity="0.3" stroke-width="2.66667" stroke-linecap="round" stroke-linejoin="round"/>
<path d="M280.802 646.722L257.846 607.161" stroke="#5E4870" stroke-opacity="0.3" stroke-width="2.66667" stroke-linecap="round" stroke-linejoin="round" stroke-dasharray="17.7 17.7"/>
<path d="M1306.91 1818.9L1242.55 1882.94" stroke="#F28195" stroke-opacity="0.3" stroke-width="2.66667" stroke-miterlimit="10" stroke-linecap="round" stroke-linejoin="round"/>
<path d="M1306.91 1882.94L1242.55 1818.9" stroke="#F28195" stroke-opacity="0.3" stroke-width="2.66667" stroke-miterlimit="10" stroke-linecap="round" stroke-linejoin="round"/>
<path d="M1106.1 2445.76C1106.1 2466.08 1089.55 2482.55 1069.13 2482.55C1048.71 2482.55 1032.16 2466.08 1032.16 2445.76C1032.16 2425.44 1048.71 2409 1069.13 2409C1089.55 2409 1106.1 2425.44 1106.1 2445.76Z" stroke="#F28195" stroke-opacity="0.3" stroke-width="2.66667" stroke-miterlimit="10" stroke-linecap="round" stroke-linejoin="round"/>
<path d="M1292.91 402.52C1292.91 422.819 1276.36 439.292 1255.95 439.292C1235.53 439.292 1218.98 422.819 1218.98 402.52C1218.98 382.199 1235.53 365.73 1255.95 365.73C1276.36 365.73 1292.91 382.199 1292.91 402.52Z" stroke="#4E274E" stroke-opacity="0.3" stroke-width="2.66667" stroke-miterlimit="10" stroke-linecap="round" stroke-linejoin="round"/>
<path d="M187.199 222.332L271.33 203.502L290.261 119.784L374.401 100.953" stroke="#5E4870" stroke-opacity="0.3" stroke-width="2.66667" stroke-miterlimit="10" stroke-linecap="round" stroke-linejoin="round"/>
<path d="M315.775 247.723L334.708 164.005L418.844 145.175" stroke="#F28195" stroke-opacity="0.3" stroke-width="2.66667" stroke-miterlimit="10" stroke-linecap="round" stroke-linejoin="round"/>
<path d="M400.239 402.52C400.239 422.819 383.687 439.292 363.271 439.292C342.853 439.292 326.303 422.819 326.303 402.52C326.303 382.199 342.853 365.73 363.271 365.73C383.687 365.73 400.239 382.199 400.239 402.52Z" stroke="#F28195" stroke-opacity="0.3" stroke-width="2.66667" stroke-miterlimit="10" stroke-linecap="round" stroke-linejoin="round"/>
<path d="M1632.57 1023.44L1716.7 1004.61L1735.63 920.897L1819.76 902.061" stroke="#5E4870" stroke-opacity="0.3" stroke-width="2.66667" stroke-miterlimit="10" stroke-linecap="round" stroke-linejoin="round"/>
<path d="M1761.14 1048.83L1780.07 965.118L1864.21 946.28" stroke="#F28195" stroke-opacity="0.3" stroke-width="2.66667" stroke-miterlimit="10" stroke-linecap="round" stroke-linejoin="round"/>
<path d="M1845.6 1203.61C1845.6 1223.93 1829.05 1240.4 1808.64 1240.4C1788.22 1240.4 1771.67 1223.93 1771.67 1203.61C1771.67 1183.3 1788.22 1166.83 1808.64 1166.83C1829.05 1166.83 1845.6 1183.3 1845.6 1203.61Z" stroke="#F28195" stroke-opacity="0.3" stroke-width="2.66667" stroke-miterlimit="10" stroke-linecap="round" stroke-linejoin="round"/>
<path d="M631.009 2325.58L523.645 2354.2L602.241 2432.41L631.009 2325.58Z" stroke="#F28195" stroke-opacity="0.3" stroke-width="2.66667" stroke-miterlimit="10" stroke-linecap="round" stroke-linejoin="round"/>
<path d="M1459.87 122.33L1352.51 150.931L1431.11 229.144L1459.87 122.33Z" stroke="#F28195" stroke-opacity="0.3" stroke-width="2.66667" stroke-miterlimit="10" stroke-linecap="round" stroke-linejoin="round"/>
<path d="M1459.87 2108.64H1380.9V2030.07H1459.87V2108.64Z" stroke="#5E4870" stroke-opacity="0.3" stroke-width="2.66667" stroke-miterlimit="10" stroke-linecap="round" stroke-linejoin="round"/>
<path d="M1642.75 2615.33H1563.77V2536.75H1642.75V2615.33Z" stroke="#F28195" stroke-opacity="0.3" stroke-width="2.66667" stroke-miterlimit="10" stroke-linecap="round" stroke-linejoin="round"/>
<path d="M786.309 2085.63L730.47 2141.18L674.628 2085.63L730.47 2030.07L786.309 2085.63Z" stroke="#4E274E" stroke-opacity="0.3" stroke-width="2.66667" stroke-miterlimit="10" stroke-linecap="round" stroke-linejoin="round"/>
<path d="M1092.29 100.953L1036.45 156.505L980.61 100.953L1036.45 45.4012L1092.29 100.953Z" stroke="#4E274E" stroke-opacity="0.3" stroke-width="2.66667" stroke-miterlimit="10" stroke-linecap="round" stroke-linejoin="round"/>
<path d="M276.385 2576.04L220.545 2631.59L164.706 2576.04L220.545 2520.49L276.385 2576.04Z" stroke="#4E274E" stroke-opacity="0.3" stroke-width="2.66667" stroke-miterlimit="10" stroke-linecap="round" stroke-linejoin="round"/>
<path d="M482.103 1677.93H403.132V1599.36H482.103V1677.93Z" stroke="#F28195" stroke-opacity="0.3" stroke-width="2.66667" stroke-miterlimit="10" stroke-linecap="round" stroke-linejoin="round"/>
<path d="M1808.64 456.433L1752.8 400.87L1808.64 345.318L1864.48 400.87L1808.64 456.433Z" stroke="#F28195" stroke-opacity="0.3" stroke-width="2.66667" stroke-miterlimit="10" stroke-linecap="round" stroke-linejoin="round"/>
<path d="M856.202 401.649H724.01V270.132H856.202V401.649Z" stroke="#F28195" stroke-opacity="0.3" stroke-width="2.66667" stroke-miterlimit="10" stroke-linecap="round" stroke-linejoin="round"/>
<path d="M884.737 245.842H752.543L724.01 270.132H856.202L884.737 245.842Z" stroke="#F28195" stroke-opacity="0.3" stroke-width="2.66667" stroke-miterlimit="10" stroke-linecap="round" stroke-linejoin="round"/>
<path d="M884.738 377.36V245.842L856.202 270.132V401.649L884.738 377.36Z" stroke="#F28195" stroke-opacity="0.3" stroke-width="2.66667" stroke-miterlimit="10" stroke-linecap="round" stroke-linejoin="round"/>
</svg>
