<svg width="44" height="44" viewBox="0 0 44 44" fill="none" xmlns="http://www.w3.org/2000/svg">
<g clip-path="url(#clip0)">
<path d="M43.957 12.9361C43.854 10.5982 43.4759 8.99095 42.9343 7.59822C42.3756 6.11988 41.5161 4.79632 40.3899 3.69603C39.2896 2.57863 37.9574 1.71036 36.4961 1.16038C35.0954 0.618804 33.4965 0.240739 31.1586 0.137661C28.8032 0.0258534 28.0555 0 22.0817 0C16.1079 0 15.3601 0.0258534 13.0135 0.128931C10.6756 0.232009 9.06834 0.61041 7.67595 1.15165C6.19727 1.71036 4.87371 2.5699 3.77342 3.69603C2.65602 4.79632 1.78808 6.12861 1.23777 7.58983C0.696196 8.99095 0.318132 10.5895 0.215054 12.9274C0.103246 15.2827 0.0773926 16.0305 0.0773926 22.0043C0.0773926 27.9781 0.103246 28.7259 0.206324 31.0725C0.309402 33.4104 0.687802 35.0176 1.22938 36.4104C1.78808 37.8887 2.65602 39.2123 3.77342 40.3126C4.87371 41.43 6.206 42.2982 7.66722 42.8482C9.06834 43.3898 10.6669 43.7679 13.0051 43.8709C15.3514 43.9743 16.0995 43.9999 22.0733 43.9999C28.0471 43.9999 28.7948 43.9743 31.1415 43.8709C33.4793 43.7679 35.0866 43.3898 36.479 42.8482C39.436 41.705 41.7739 39.3671 42.9172 36.4104C43.4584 35.0092 43.8368 33.4104 43.9399 31.0725C44.043 28.7259 44.0688 27.9781 44.0688 22.0043C44.0688 16.0305 44.0601 15.2827 43.957 12.9361ZM39.9947 30.9006C39.9001 33.0494 39.5391 34.2098 39.2383 34.9834C38.4989 36.9002 36.9776 38.4216 35.0608 39.1609C34.2872 39.4617 33.1184 39.8227 30.9779 39.917C28.6572 40.0205 27.9611 40.046 22.0904 40.046C16.2197 40.046 15.5149 40.0205 13.2025 39.917C11.0537 39.8227 9.8933 39.4617 9.11971 39.1609C8.16582 38.8084 7.29755 38.2497 6.59279 37.519C5.86218 36.8056 5.30348 35.946 4.95093 34.9921C4.65009 34.2185 4.28915 33.0494 4.1948 30.9093C4.09139 28.5885 4.06587 27.8922 4.06587 22.0214C4.06587 16.1507 4.09139 15.4459 4.1948 13.1339C4.28915 10.985 4.65009 9.82464 4.95093 9.05105C5.30348 8.09683 5.86218 7.22889 6.60152 6.5238C7.31467 5.79318 8.17422 5.23448 9.12844 4.88227C9.90203 4.58143 11.0711 4.22049 13.2113 4.12581C15.532 4.02273 16.2284 3.99687 22.0988 3.99687C27.9783 3.99687 28.6743 4.02273 30.9867 4.12581C33.1355 4.22049 34.2959 4.58143 35.0695 4.88227C36.0234 5.23448 36.8917 5.79318 37.5964 6.5238C38.327 7.23728 38.8857 8.09683 39.2383 9.05105C39.5391 9.82464 39.9001 10.9934 39.9947 13.1339C40.0978 15.4546 40.1237 16.1507 40.1237 22.0214C40.1237 27.8922 40.0978 28.5798 39.9947 30.9006Z" fill="#F7F7F7"/>
<path d="M22.0816 10.7013C15.8415 10.7013 10.7786 15.7639 10.7786 22.0043C10.7786 28.2447 15.8415 33.3073 22.0816 33.3073C28.322 33.3073 33.3845 28.2447 33.3845 22.0043C33.3845 15.7639 28.322 10.7013 22.0816 10.7013ZM22.0816 29.3363C18.0333 29.3363 14.7496 26.0529 14.7496 22.0043C14.7496 17.9557 18.0333 14.6723 22.0816 14.6723C26.1301 14.6723 29.4135 17.9557 29.4135 22.0043C29.4135 26.0529 26.1301 29.3363 22.0816 29.3363Z" fill="#F7F7F7"/>
<path d="M36.4706 10.2544C36.4706 11.7116 35.289 12.8931 33.8315 12.8931C32.3743 12.8931 31.1927 11.7116 31.1927 10.2544C31.1927 8.79689 32.3743 7.61568 33.8315 7.61568C35.289 7.61568 36.4706 8.79689 36.4706 10.2544Z" fill="#F7F7F7"/>
</g>
<defs>
<clipPath id="clip0">
<rect width="44" height="44" fill="white"/>
</clipPath>
</defs>
</svg>
