<svg width="196" height="181" viewBox="0 0 196 181" fill="none" xmlns="http://www.w3.org/2000/svg">
<path d="M78.8319 58.9049L79.2844 59.3201L60.1034 79.6596L59.6509 79.2444C58.0407 77.767 57.9486 75.2803 59.4479 73.6905L59.8299 73.2853L72.8194 59.5113L73.2014 59.1062C74.7006 57.5166 77.2217 57.4275 78.8319 58.9049Z" fill="#FFF9F1" stroke="#8E4919"/>
<path d="M39.3115 37.7822C42.2619 34.7164 46.9086 33.7292 50.525 35.9709C54.5683 38.4773 57.3991 41.2367 60.0163 45.1152C62.4112 48.6643 61.6154 53.3797 58.6466 56.4647L55.9959 59.2192C52.8523 62.4859 47.813 63.355 44.1396 60.6979C41.0594 58.47 38.494 55.9999 35.817 52.5823C32.9627 48.9383 33.5556 43.7635 36.7653 40.4282L39.3115 37.7822Z" fill="#FFF9F1"/>
<path d="M2.9075 86.6375L2.90721 86.638C1.7195 88.5695 1.69422 91.1206 2.85009 93.0694C5.16756 96.9734 10.2734 97.3538 13.152 94.343C13.274 94.2153 13.3892 94.0842 13.4977 93.9497L13.4976 93.9496L13.5024 93.9439L18.9473 87.3932L10.4862 79.3464L4.19256 85.0925L4.19259 85.0926L4.18794 85.0967C3.7069 85.525 3.27456 86.039 2.9075 86.6375Z" fill="#8E4919" stroke="#8E4919"/>
<path d="M10.6279 78.8727L19.4273 87.8273L22.8407 83.4285L22.8161 83.4062L14.5786 75.0236L14.5745 75.0194L10.6279 78.8727Z" fill="#FFF9F1"/>
<path d="M26.0888 45.9989L26.0888 45.9989C27.5761 47.3975 29.9359 47.3419 31.3537 45.8749L31.3537 45.8748L43.0054 33.8192C44.4196 32.356 44.3635 30.04 42.8801 28.6453L42.8801 28.6452C42.1363 27.9458 41.1754 27.6091 40.2216 27.6316C39.2663 27.6541 38.3228 28.0358 37.6138 28.7693L25.9634 40.8236C24.5479 42.2882 24.604 44.6028 26.0888 45.9989Z" fill="#8E4919" stroke="#8E4919"/>
<path d="M33.6165 57.6604L34.0149 58.0331L33.6093 58.3975L14.9257 75.1781L22.81 82.5536L38.9913 63.4073L39.3306 63.0058L39.7148 63.3652L40.7309 64.3158C41.6545 65.1797 43.1218 65.1451 44.0024 64.2387L44.0024 64.2386C44.4419 63.7864 44.6507 63.2057 44.6368 62.6303C44.6235 62.0819 44.4076 61.5385 43.989 61.1179C42.4654 60.2464 41.238 59.4278 39.9724 58.2677C38.7033 57.1044 37.4094 55.6102 35.7391 53.3998C34.814 52.587 33.3883 52.6371 32.5231 53.5262C32.0837 53.9785 31.8749 54.5592 31.8888 55.1345C31.9027 55.7098 32.1395 56.2798 32.5998 56.7093L32.6003 56.7098L33.6165 57.6604Z" fill="#8E4919" stroke="#8E4919"/>
<path d="M51.9326 68.9598L51.9327 68.9598C53.4321 70.3484 55.79 70.2747 57.1979 68.7954L57.1979 68.7954L68.7556 56.6524C70.1599 55.1769 70.0861 52.8629 68.5906 51.4781L68.5906 51.4781C67.8431 50.7859 66.8797 50.4564 65.9245 50.4862C64.9692 50.5161 64.0287 50.905 63.3268 51.6425L51.7677 63.787C50.3648 65.261 50.4386 67.5764 51.9326 68.9598Z" fill="#8E4919" stroke="#8E4919"/>
<path d="M111.603 29.1876L99.8502 54.8662L118.666 59.161L122.591 32.3693C123.076 29.0537 122.438 25.0101 119.251 23.9742C115.97 22.9078 113.039 26.0511 111.603 29.1876Z" fill="#FFF9F1" stroke="#8E4919"/>
<path d="M154.446 27.2779L122.655 63.1494L138.516 77.4143L167.264 34.8893C169.65 31.3593 171.844 26.779 169.367 23.3122C165.913 18.4779 158.387 22.8312 154.446 27.2779Z" fill="#FFF9F1" stroke="#8E4919"/>
<path d="M162.857 72.6812L142.483 80.9891L147.926 98.0151L168.674 83.1781C171.817 80.9305 175.039 77.1611 173.075 73.8339C171.159 70.5889 166.346 71.2583 162.857 72.6812Z" fill="#FFF9F1" stroke="#8E4919"/>
<path d="M121.645 39.2679L108.602 35.8934L105.939 42.0289L120.867 46.0169L121.645 39.2679Z" fill="#8E4919"/>
<path d="M161.144 44.1774L149.014 33.5926L144.505 38.6543L157.27 50.005L161.144 44.1774Z" fill="#8E4919"/>
<path d="M166.431 84.7277L160.431 73.3198L156.167 75.2211L162.167 87.7381L166.431 84.7277Z" fill="#8E4919"/>
<rect x="0.576736" y="-0.411828" width="4.52136" height="5.99521" rx="2.26068" transform="matrix(0.166773 -0.986028 0.986698 0.162372 147.344 12.8737)" fill="#FFF9F1" stroke="#8E4919"/>
<rect x="0.576736" y="-0.411828" width="4.52136" height="5.99521" rx="2.26068" transform="matrix(0.166773 -0.986028 0.986698 0.162372 124.039 8.99302)" fill="#FFF9F1" stroke="#8E4919"/>
<rect x="0.414296" y="0.571166" width="5.56663" height="11.4831" rx="2.78331" transform="matrix(0.987899 0.155103 -0.159307 0.987229 130.188 0.811368)" fill="#FFF9F1" stroke="#8E4919"/>
<rect x="0.414296" y="0.571166" width="5.32342" height="11.4831" rx="2.66171" transform="matrix(0.987899 0.155103 -0.159307 0.987229 136.675 1.82988)" fill="#FFF9F1" stroke="#8E4919"/>
<rect x="0.414296" y="0.571166" width="5.56663" height="11.4831" rx="2.78331" transform="matrix(0.987899 0.155103 -0.159307 0.987229 142.923 2.81066)" fill="#FFF9F1" stroke="#8E4919"/>
<rect x="0.578406" y="0.40954" width="4.59332" height="5.90523" rx="2.29666" transform="matrix(0.986126 -0.166209 0.170685 0.985289 185.839 58.5625)" fill="#FFF9F1" stroke="#8E4919"/>
<rect x="0.578406" y="0.40954" width="4.59332" height="5.90523" rx="2.29666" transform="matrix(0.986126 -0.166209 0.170685 0.985289 181.691 35.6473)" fill="#FFF9F1" stroke="#8E4919"/>
<rect x="-0.403352" y="0.578735" width="5.48214" height="11.6458" rx="2.74107" transform="matrix(0.178137 0.984006 -0.98484 0.173464 191.836 40.2931)" fill="#FFF9F1" stroke="#8E4919"/>
<rect x="-0.403352" y="0.578735" width="5.24206" height="11.6458" rx="2.62103" transform="matrix(0.178137 0.984006 -0.98484 0.173464 192.991 46.6716)" fill="#FFF9F1" stroke="#8E4919"/>
<rect x="-0.403352" y="0.578735" width="5.48214" height="11.6458" rx="2.74107" transform="matrix(0.178137 0.984006 -0.98484 0.173464 194.103 52.8138)" fill="#FFF9F1" stroke="#8E4919"/>
<path d="M72.9744 134.823C53.0469 118.565 50.2544 89.4502 66.7371 69.7942C83.2197 50.1382 112.736 47.3836 132.664 63.6418C152.591 79.9 155.384 109.014 138.901 128.67C122.418 148.326 92.9018 151.081 72.9744 134.823Z" fill="#B10C12"/>
<path d="M104.08 53.0573C111.758 56.9762 118.427 63.0366 123.071 70.9697C136.001 93.0608 128.328 121.309 105.932 134.063C98.1533 138.493 89.6222 140.468 81.2578 140.238C94.9608 147.232 111.878 147.406 126.231 139.232C148.627 126.478 156.301 98.2296 143.37 76.1385C134.931 61.7198 119.799 53.4898 104.08 53.0573Z" fill="#8F181C"/>
<path d="M69.8679 122.757C57.8628 102.247 64.9873 76.0207 85.7807 64.1791C97.9347 57.2575 112.068 56.7854 124.112 61.6816C111.094 54.2514 94.5219 53.696 80.5615 61.6463C59.7681 73.4878 52.6437 99.7142 64.6488 120.224C69.6368 128.746 77.1434 134.938 85.7048 138.418C79.3332 134.781 73.813 129.497 69.8679 122.757Z" fill="#C53636"/>
<path d="M78.0846 66.3681C77.663 66.6082 77.1397 66.4932 76.916 66.111L75.2292 63.2292C75.0056 62.8471 75.1662 62.3425 75.5878 62.1024C76.0095 61.8622 76.5327 61.9775 76.7564 62.3595L78.4431 65.2413C78.6669 65.6235 78.5064 66.128 78.0846 66.3681Z" fill="white"/>
<path d="M84.8321 77.8956C84.4105 78.1357 83.8872 78.0207 83.6635 77.6385L81.9767 74.7567C81.7531 74.3746 81.9137 73.8699 82.3353 73.6299C82.757 73.3897 83.2802 73.5049 83.5038 73.887L85.1906 76.7688C85.4143 77.151 85.2538 77.6554 84.8321 77.8956Z" fill="white"/>
<path d="M81.4587 72.132C81.0371 72.372 80.5138 72.2569 80.2901 71.8748L78.6033 68.993C78.3796 68.6108 78.5403 68.1063 78.9619 67.8662C79.3836 67.626 79.9067 67.7411 80.1304 68.1233L81.8172 71.0052C82.0409 71.3872 81.8804 71.8918 81.4587 72.132Z" fill="white"/>
<path d="M88.2055 83.6594C87.7839 83.8995 87.2606 83.7844 87.0369 83.4023L85.3501 80.5205C85.1264 80.1383 85.2871 79.6338 85.7087 79.3937C86.1304 79.1535 86.6535 79.2686 86.8772 79.6508L88.564 82.5326C88.7877 82.9147 88.6272 83.4193 88.2055 83.6594Z" fill="white"/>
<path d="M94.953 95.1869C94.5314 95.427 94.008 95.3118 93.7844 94.9298L92.0976 92.0479C91.8739 91.6657 92.0346 91.1612 92.4562 90.9211C92.8779 90.681 93.401 90.7961 93.6247 91.1783L95.3115 94.0601C95.5352 94.4422 95.3747 94.9467 94.953 95.1869Z" fill="white"/>
<path d="M91.5796 89.4231C91.158 89.6632 90.6347 89.5482 90.411 89.166L88.7242 86.2841C88.5006 85.9021 88.6612 85.3974 89.0828 85.1573C89.5045 84.9172 90.0277 85.0324 90.2513 85.4145L91.9381 88.2963C92.1618 88.6785 92.0013 89.1829 91.5796 89.4231Z" fill="white"/>
<path d="M98.3264 100.951C97.9048 101.191 97.3815 101.076 97.1578 100.693L95.471 97.8116C95.2473 97.4294 95.408 96.9249 95.8296 96.6848C96.2513 96.4446 96.7744 96.5597 96.9981 96.9419L98.6849 99.8238C98.9086 100.206 98.7481 100.71 98.3264 100.951Z" fill="white"/>
<path d="M105.074 112.478C104.652 112.718 104.129 112.603 103.905 112.221L102.219 109.339C101.995 108.957 102.155 108.452 102.577 108.212C102.999 107.972 103.522 108.087 103.746 108.469L105.432 111.351C105.656 111.733 105.496 112.238 105.074 112.478Z" fill="white"/>
<path d="M101.7 106.714C101.279 106.954 100.756 106.839 100.532 106.457L98.845 103.575C98.6214 103.193 98.782 102.689 99.2036 102.448C99.6253 102.208 100.149 102.324 100.372 102.706L102.059 105.588C102.283 105.97 102.122 106.474 101.7 106.714Z" fill="white"/>
<path d="M108.447 118.242C108.026 118.482 107.502 118.367 107.279 117.985L105.592 115.103C105.368 114.721 105.529 114.216 105.95 113.976C106.372 113.736 106.895 113.851 107.119 114.233L108.806 117.115C109.029 117.497 108.869 118.002 108.447 118.242Z" fill="white"/>
<path d="M115.195 129.769C114.773 130.009 114.25 129.894 114.026 129.512L112.339 126.63C112.116 126.248 112.276 125.744 112.698 125.503C113.12 125.263 113.643 125.378 113.867 125.761L115.553 128.642C115.777 129.025 115.617 129.529 115.195 129.769Z" fill="white"/>
<path d="M111.821 124.006C111.4 124.246 110.877 124.131 110.653 123.748L108.966 120.867C108.742 120.484 108.903 119.98 109.325 119.74C109.746 119.5 110.269 119.615 110.493 119.997L112.18 122.879C112.404 123.261 112.243 123.765 111.821 124.006Z" fill="white"/>
<path d="M118.568 135.533C118.147 135.773 117.623 135.658 117.4 135.276L115.713 132.394C115.489 132.012 115.65 131.507 116.071 131.267C116.493 131.027 117.016 131.142 117.24 131.524L118.927 134.406C119.15 134.788 118.99 135.293 118.568 135.533Z" fill="white"/>
<path d="M121.889 141.207C121.467 141.447 120.944 141.332 120.72 140.95L119.034 138.068C118.81 137.686 118.971 137.181 119.392 136.941C119.814 136.701 120.337 136.816 120.561 137.199L122.248 140.08C122.471 140.463 122.311 140.967 121.889 141.207Z" fill="white"/>
<path d="M86.3327 61.671C85.911 61.9112 85.3878 61.7961 85.1641 61.4139L83.4773 58.5321C83.2537 58.15 83.4141 57.6455 83.8359 57.4053C84.2574 57.1652 84.7808 57.2804 85.0044 57.6624L86.6912 60.5443C86.9149 60.9264 86.7543 61.431 86.3327 61.671Z" fill="white"/>
<path d="M93.0802 73.1985C92.6585 73.4387 92.1353 73.3236 91.9116 72.9414L90.2248 70.0596C90.0012 69.6775 90.1616 69.1729 90.5833 68.9328C91.0049 68.6927 91.5283 68.8078 91.7519 69.1899L93.4387 72.0717C93.6624 72.4539 93.5018 72.9584 93.0802 73.1985Z" fill="white"/>
<path d="M89.7061 67.4349C89.2844 67.675 88.7611 67.5598 88.5375 67.1777L86.8507 64.2959C86.627 63.9137 86.7875 63.4093 87.2093 63.1691C87.6308 62.929 88.1541 63.044 88.3778 63.4262L90.0646 66.3081C90.2883 66.6901 90.1277 67.1948 89.7061 67.4349Z" fill="white"/>
<path d="M96.4536 78.9623C96.0319 79.2025 95.5086 79.0873 95.285 78.7052L93.5982 75.8234C93.3745 75.4412 93.535 74.9368 93.9567 74.6966C94.3783 74.4565 94.9016 74.5715 95.1253 74.9537L96.8121 77.8355C97.0358 78.2176 96.8752 78.7222 96.4536 78.9623Z" fill="white"/>
<path d="M103.201 90.4898C102.779 90.73 102.256 90.6147 102.032 90.2327L100.346 87.3508C100.122 86.9687 100.282 86.4642 100.704 86.2241C101.126 85.984 101.649 86.099 101.873 86.4812L103.56 89.363C103.783 89.7451 103.623 90.2497 103.201 90.4898Z" fill="white"/>
<path d="M99.827 84.726C99.4052 84.9662 98.8821 84.8511 98.6584 84.4689L96.9716 81.587C96.748 81.205 96.9084 80.7004 97.3301 80.4602C97.7517 80.2202 98.2751 80.3353 98.4987 80.7174L100.186 83.5992C100.409 83.9814 100.249 84.4859 99.827 84.726Z" fill="white"/>
<path d="M106.574 96.2535C106.153 96.4936 105.63 96.3785 105.406 95.9963L103.719 93.1145C103.495 92.7323 103.656 92.2279 104.078 91.9877C104.499 91.7476 105.022 91.8626 105.246 92.2448L106.933 95.1267C107.157 95.5089 106.996 96.0134 106.574 96.2535Z" fill="white"/>
<path d="M113.322 107.781C112.9 108.021 112.377 107.906 112.153 107.524L110.467 104.642C110.243 104.26 110.403 103.755 110.825 103.515C111.247 103.275 111.77 103.39 111.994 103.772L113.68 106.654C113.904 107.036 113.744 107.541 113.322 107.781Z" fill="white"/>
<path d="M109.948 102.017C109.526 102.257 109.003 102.142 108.779 101.76L107.092 98.8782C106.869 98.4961 107.029 97.9916 107.451 97.7514C107.873 97.5113 108.396 97.6264 108.62 98.0085L110.306 100.89C110.53 101.273 110.369 101.777 109.948 102.017Z" fill="white"/>
<path d="M116.695 113.545C116.274 113.785 115.75 113.67 115.527 113.287L113.84 110.406C113.616 110.024 113.777 109.519 114.198 109.279C114.62 109.039 115.143 109.154 115.367 109.536L117.054 112.418C117.278 112.8 117.117 113.305 116.695 113.545Z" fill="white"/>
<path d="M123.443 125.072C123.021 125.312 122.498 125.197 122.274 124.815L120.587 121.933C120.364 121.551 120.524 121.047 120.946 120.806C121.368 120.566 121.891 120.681 122.115 121.063L123.801 123.945C124.025 124.327 123.864 124.832 123.443 125.072Z" fill="white"/>
<path d="M120.069 119.308C119.647 119.549 119.124 119.433 118.9 119.051L117.213 116.169C116.99 115.787 117.15 115.283 117.572 115.043C117.994 114.803 118.517 114.918 118.74 115.3L120.427 118.182C120.651 118.564 120.49 119.068 120.069 119.308Z" fill="white"/>
<path d="M126.816 130.836C126.395 131.076 125.871 130.961 125.648 130.579L123.961 127.697C123.737 127.315 123.898 126.81 124.319 126.57C124.741 126.33 125.264 126.445 125.488 126.827L127.175 129.709C127.398 130.091 127.238 130.596 126.816 130.836Z" fill="white"/>
<path d="M130.138 136.511C129.716 136.751 129.193 136.636 128.969 136.254L127.283 133.372C127.059 132.99 127.219 132.485 127.641 132.245C128.063 132.005 128.586 132.12 128.81 132.502L130.497 135.384C130.72 135.766 130.56 136.271 130.138 136.511Z" fill="white"/>
<path d="M66.7061 69.8147L110.59 144.789C111.203 144.688 111.815 144.573 112.426 144.446L67.9249 68.418C67.5086 68.8766 67.1018 69.3419 66.7061 69.8147Z" fill="white"/>
<path d="M93.2115 54.0181L137.713 130.047C138.129 129.588 138.536 129.123 138.931 128.65L95.0472 53.6753C94.4343 53.7771 93.8225 53.8916 93.2115 54.0181Z" fill="white"/>
</svg>
