<svg width="44" height="44" viewBox="0 0 44 44" fill="none" xmlns="http://www.w3.org/2000/svg">
<g clip-path="url(#clip0)">
<path d="M44 8.35725C42.3638 9.075 40.6203 9.55075 38.8025 9.78175C40.6725 8.66525 42.0998 6.91075 42.7708 4.796C41.0273 5.8355 39.1022 6.56975 37.0508 6.9795C35.3952 5.21675 33.0357 4.125 30.4618 4.125C25.4677 4.125 21.4473 8.1785 21.4473 13.1478C21.4473 13.8628 21.5077 14.5502 21.6562 15.2047C14.157 14.839 7.52125 11.2448 3.0635 5.7695C2.28525 7.11975 1.82875 8.66525 1.82875 10.329C1.82875 13.453 3.4375 16.2222 5.8355 17.8255C4.38625 17.798 2.9645 17.3772 1.76 16.7145C1.76 16.742 1.76 16.7778 1.76 16.8135C1.76 21.197 4.88675 24.838 8.987 25.6768C8.25275 25.8775 7.4525 25.9737 6.622 25.9737C6.0445 25.9737 5.4615 25.9408 4.91425 25.8197C6.083 29.392 9.3995 32.0182 13.343 32.1035C10.274 34.5042 6.37725 35.9508 2.15875 35.9508C1.419 35.9508 0.7095 35.9177 0 35.827C3.99575 38.4038 8.73125 39.875 13.838 39.875C30.437 39.875 39.512 26.125 39.512 14.2065C39.512 13.8077 39.4982 13.4228 39.479 13.0405C41.2692 11.77 42.7735 10.1832 44 8.35725Z" fill="#F7F7F7"/>
</g>
<defs>
<clipPath id="clip0">
<rect width="44" height="44" fill="white"/>
</clipPath>
</defs>
</svg>
